<svg id="Propuesta__"  data-name="Propuesta_!" xmlns="http://www.w3.org/2000/svg" viewBox="0 0 823.22 1052.45"><defs><style>.cls-1{fill:#fff064;}</style></defs><title>Artboard 1</title><path class="cls-1" d="M538.59,387.35l-2.47,33.07L507.29,427l-14.8,124s-2.85,33-34.68,47.67a49.7,49.7,0,0,1-33,2.88c-12.33-3.13-28.22-10.08-32.5-25.37,0,0-14.21-50.78,43.94-50.76.82,0,1.64,0,2.45,0,3.19-.09,18.93.51,37.38,20a2.52,2.52,0,0,0,4.18-.78c.82-2.06,1.48-5.6,1.23-11.62l.9-55.8L379.91,526l-9.11,71.2a31.1,31.1,0,0,1-1.86,7.35c-4.11,10.54-17.44,38-45.44,40.55,0,0-56.92,7.33-53.5-45.81a24.39,24.39,0,0,1,5.82-14.23c9.31-11,31.57-28.83,66.48-7.12a61.13,61.13,0,0,1,12.38,10.55c2.53,2.74,5.92,3.81,5.28-11.36l.93-35.71-3.13-111.79,179.36-43.82a175.75,175.75,0,1,0,1.47,1.5Z"/><polygon class="cls-1" points="482.92 461.23 483.87 435.36 384.77 476.49 383.6 497.04 482.92 461.23"/></svg>